<?xml version="1.0" standalone="no"?>
<!DOCTYPE svg PUBLIC "-//W3C//DTD SVG 20010904//EN"
 "http://www.w3.org/TR/2001/REC-SVG-20010904/DTD/svg10.dtd">
<svg version="1.0" xmlns="http://www.w3.org/2000/svg"
 width="500.000000pt" height="500.000000pt" viewBox="0 0 500.000000 500.000000"
 preserveAspectRatio="xMidYMid meet">
<metadata>
Created by potrace 1.11, written by Peter Selinger 2001-2013
</metadata>
<g transform="translate(0.000000,500.000000) scale(0.100000,-0.100000)"
fill="#000000" stroke="none">
<path d="M2545 4660 c-8 -13 3 -50 16 -50 12 0 12 47 0 55 -5 3 -12 1 -16 -5z"/>
<path d="M2380 4642 c0 -25 25 -58 34 -44 7 12 -13 62 -26 62 -4 0 -8 -8 -8
-18z"/>
<path d="M2670 4645 c0 -8 5 -15 10 -15 6 0 10 7 10 15 0 8 -4 15 -10 15 -5 0
-10 -7 -10 -15z"/>
<path d="M2830 4615 c0 -8 5 -15 10 -15 6 0 10 7 10 15 0 8 -4 15 -10 15 -5 0
-10 -7 -10 -15z"/>
<path d="M2970 4594 c0 -14 4 -23 10 -19 6 3 10 15 10 26 0 10 -4 19 -10 19
-5 0 -10 -12 -10 -26z"/>
<path d="M2200 4596 c0 -16 24 -38 33 -30 8 9 -11 44 -23 44 -6 0 -10 -6 -10
-14z"/>
<path d="M3208 4564 c-5 -4 -8 -19 -8 -33 0 -18 3 -22 11 -14 6 6 9 21 7 33
-1 12 -6 18 -10 14z"/>
<path d="M2031 4551 c-11 -7 -7 -13 17 -25 38 -20 42 -20 42 -1 0 8 -9 19 -19
25 -23 12 -22 12 -40 1z"/>
<path d="M3465 4470 c-11 -17 5 -32 21 -19 8 6 14 15 14 20 0 12 -27 11 -35
-1z"/>
<path d="M1825 4440 c-3 -6 4 -14 17 -19 26 -10 39 6 17 20 -18 11 -26 11 -34
-1z"/>
<path d="M1705 4351 c-8 -13 42 -34 63 -26 19 7 5 22 -29 30 -16 4 -30 2 -34
-4z"/>
<path d="M2474 4321 c2 -24 9 -48 15 -54 18 -18 13 56 -5 79 -14 18 -15 16
-10 -25z"/>
<path d="M3652 4328 c5 -15 37 -18 41 -3 1 6 -9 12 -22 13 -16 3 -22 -1 -19
-10z"/>
<path d="M2223 4303 c-7 -20 -8 -33 -2 -33 13 0 22 24 17 47 -3 13 -7 9 -15
-14z"/>
<path d="M2399 4325 c-2 -22 2 -91 7 -107 3 -10 10 -18 16 -18 14 0 5 107 -10
122 -7 7 -12 8 -13 3z"/>
<path d="M2290 4286 c-12 -33 -13 -56 -1 -56 10 0 25 69 17 77 -3 3 -10 -6
-16 -21z"/>
<path d="M2358 4287 c-11 -25 -10 -99 1 -116 14 -22 18 0 12 69 -4 43 -9 59
-13 47z"/>
<path d="M1616 4273 c-3 -3 -3 -10 0 -14 7 -12 44 -12 44 0 0 10 -36 21 -44
14z"/>
<path d="M3310 4252 c0 -5 11 -19 25 -32 19 -18 25 -20 25 -8 0 8 -8 22 -18
31 -20 19 -32 22 -32 9z"/>
<path d="M3270 4212 c0 -14 49 -56 57 -49 3 4 -4 18 -17 32 -24 25 -40 32 -40
17z"/>
<path d="M3200 4180 c0 -13 60 -80 71 -80 18 0 8 27 -22 58 -32 32 -49 40 -49
22z"/>
<path d="M3742 4178 c3 -7 19 -14 37 -16 24 -3 32 0 29 10 -3 7 -19 14 -37 16
-24 3 -32 0 -29 -10z"/>
<path d="M1499 4154 c-11 -14 -8 -15 31 -12 24 2 45 9 48 16 6 18 -63 15 -79
-4z"/>
<path d="M3060 4151 c0 -14 68 -128 81 -137 25 -15 19 9 -17 72 -36 62 -64 91
-64 65z"/>
<path d="M3143 4134 c18 -34 84 -100 92 -92 8 7 -75 110 -93 116 -11 3 -10 -2
1 -24z"/>
<path d="M1655 4097 c-4 -10 -5 -21 -1 -24 10 -10 18 4 13 24 -4 17 -4 17 -12
0z"/>
<path d="M1705 4077 c-19 -45 -19 -53 -1 -38 15 13 30 60 22 69 -3 3 -13 -11
-21 -31z"/>
<path d="M1752 4050 c-23 -36 -30 -76 -12 -65 17 10 41 65 38 83 -3 13 -10 8
-26 -18z"/>
<path d="M1804 4043 c-18 -45 -29 -93 -20 -93 8 0 42 69 50 103 10 40 -11 33
-30 -10z"/>
<path d="M1871 4047 c-23 -38 -51 -111 -51 -135 0 -30 25 9 55 86 31 79 29
102 -4 49z"/>
<path d="M3836 4041 c-9 -14 31 -33 55 -26 11 4 18 12 16 18 -5 15 -63 21 -71
8z"/>
<path d="M1424 4011 c-40 -25 -49 -38 -34 -56 9 -11 0 -27 -39 -76 -54 -67
-60 -85 -36 -103 13 -10 11 -18 -11 -64 -32 -67 -42 -121 -24 -132 11 -7 8
-21 -13 -68 -15 -33 -30 -74 -34 -92 -6 -32 -6 -33 26 -28 29 4 32 3 25 -16
-12 -36 -17 -156 -5 -156 5 0 13 5 16 10 13 22 25 8 25 -29 0 -22 5 -43 10
-46 6 -3 10 -33 10 -66 l0 -61 29 7 c30 6 30 6 20 -27 -5 -18 -9 -58 -9 -89 0
-63 15 -85 50 -74 21 7 21 5 15 -48 -9 -71 5 -100 41 -87 14 6 29 10 34 10 8
0 17 -33 27 -105 l5 -39 -23 17 c-110 78 -221 124 -426 179 -207 54 -304 57
-438 14 -157 -52 -279 -151 -393 -321 -37 -54 -84 -124 -105 -155 -100 -147
-131 -335 -84 -503 28 -98 58 -153 116 -213 53 -56 85 -77 156 -103 52 -20 70
-22 157 -15 l98 7 0 -32 c0 -57 24 -88 82 -105 59 -17 282 -24 364 -12 32 5
54 4 58 -2 3 -5 -4 -32 -16 -58 -18 -41 -21 -65 -20 -150 3 -115 18 -179 57
-230 31 -41 113 -85 158 -84 17 0 49 -3 70 -6 31 -5 45 -1 78 21 23 14 43 25
45 22 2 -2 -3 -32 -12 -67 -9 -34 -13 -71 -10 -83 5 -22 -20 -145 -34 -162 -4
-5 -13 -28 -19 -51 l-11 -41 -61 -7 c-34 -3 -105 -6 -158 -6 -53 0 -152 -4
-221 -10 -69 -5 -236 -14 -373 -20 -215 -9 -394 -24 -544 -46 l-43 -6 0 -174
0 -174 2500 0 2501 0 -3 147 -3 148 -100 12 c-322 37 -477 54 -535 56 -64 2
-65 2 -62 29 3 20 -5 32 -35 54 -49 37 -53 43 -53 81 0 69 -53 276 -111 433
-33 91 -65 173 -69 182 -5 9 -32 72 -60 140 -29 68 -88 192 -132 277 -71 136
-78 155 -64 163 39 22 85 71 95 101 14 43 -8 192 -42 284 -14 37 -28 75 -31
85 -8 27 -177 116 -310 162 -16 6 -12 13 31 59 28 29 55 62 61 74 7 12 26 25
44 28 38 9 127 97 154 153 12 23 20 67 22 118 3 67 0 90 -18 133 -37 84 -94
113 -150 74 -31 -21 -40 -33 -40 -57 0 -15 5 -12 29 13 44 47 83 43 118 -11
23 -35 29 -55 32 -120 2 -57 -2 -92 -13 -122 -18 -48 -102 -140 -138 -151 -12
-5 -59 -46 -103 -92 -77 -81 -81 -84 -108 -74 -16 6 -39 11 -52 11 -69 0 -345
-195 -367 -260 -2 -6 -38 7 -83 30 -44 22 -111 47 -150 56 -38 9 -99 27 -135
40 -176 65 -416 57 -627 -21 l-62 -23 -17 27 c-35 53 -109 132 -190 202 -46
39 -84 78 -84 85 0 18 67 92 105 116 17 10 24 18 17 18 -27 0 -78 -34 -119
-78 l-42 -46 -16 37 c-17 42 -13 96 11 134 22 35 16 49 -10 24 l-24 -23 -4 28
c-2 19 -8 28 -17 26 -8 -2 -27 -6 -43 -9 l-27 -5 6 67 6 67 -41 -7 -42 -7 0
44 c0 23 5 61 11 83 17 69 17 70 -18 69 -39 -2 -40 5 -19 104 l14 63 -21 -18
c-20 -18 -20 -18 -13 17 15 69 11 75 -36 55 -15 -6 -18 -2 -18 21 0 16 9 49
20 73 27 59 26 64 -15 57 -45 -9 -45 -2 5 98 41 82 42 101 9 91 -19 -6 -19 -5
-4 32 9 21 29 60 45 86 37 59 37 67 5 67 -22 0 -24 3 -16 18 5 10 30 41 55 69
50 55 55 69 29 76 -13 2 -8 8 20 22 20 10 37 22 37 27 0 14 -34 9 -66 -11z
m-335 -1268 c248 -63 357 -117 504 -248 110 -97 181 -181 209 -244 l20 -43
-44 -45 c-23 -24 -67 -56 -96 -70 -49 -24 -59 -25 -170 -21 -106 4 -125 8
-208 42 -49 20 -106 49 -125 65 -49 40 -167 121 -178 121 -5 0 -14 7 -21 15
-7 9 -15 13 -18 11 -2 -3 -14 1 -26 9 -41 29 -38 14 6 -33 53 -56 79 -120 109
-264 36 -174 14 -354 -52 -424 -18 -20 -28 -22 -64 -17 -39 5 -45 3 -61 -22
-15 -23 -23 -26 -51 -22 -20 4 -56 -2 -90 -14 -44 -15 -89 -20 -198 -22 -140
-2 -140 -2 -206 30 -62 31 -115 81 -163 155 -26 39 -66 195 -66 253 0 71 15
151 40 217 25 67 205 344 264 407 98 103 222 172 350 194 106 18 175 11 335
-30z m1486 -503 c39 -12 75 -25 80 -30 6 -4 42 -15 80 -24 100 -25 203 -77
250 -128 68 -72 127 -148 115 -148 -28 0 59 -111 184 -234 l79 -78 -44 5 c-24
2 -54 8 -66 12 -42 14 -24 -14 40 -61 34 -26 79 -55 100 -64 40 -18 33 -30
-19 -30 -34 0 -30 -22 8 -43 l32 -18 -52 -30 c-29 -16 -52 -34 -52 -40 0 -11
43 -53 78 -76 12 -9 22 -19 22 -23 0 -5 -38 -11 -85 -15 -47 -4 -85 -12 -85
-17 0 -5 13 -17 30 -26 36 -21 38 -32 6 -32 -50 0 -146 62 -146 94 0 9 -4 16
-9 16 -5 0 -16 6 -23 13 -7 7 -60 35 -117 60 -58 26 -133 66 -167 88 -53 34
-63 46 -66 72 -3 29 -6 32 -40 35 -32 3 -45 12 -84 60 -25 31 -50 59 -55 60
-16 6 -9 -21 17 -65 28 -48 26 -73 -5 -73 -27 0 -155 121 -188 178 -26 43 -26
45 -10 95 26 87 31 120 16 115 -7 -2 -18 -21 -26 -42 -17 -52 -112 -193 -160
-237 -56 -54 -144 -110 -162 -105 -62 17 -98 16 -123 -3 -16 -13 -41 -21 -65
-21 -32 0 -42 5 -51 24 -12 26 -158 222 -172 231 -5 3 -15 -2 -24 -11 -9 -8
-20 -12 -26 -9 -6 4 4 24 24 48 19 23 55 78 81 122 64 108 125 192 172 236 63
60 155 109 215 115 29 3 76 12 103 20 75 21 298 12 390 -16z m-222 -585 c-8
-22 19 -59 110 -152 47 -49 74 -83 65 -83 -9 0 -28 -14 -42 -31 -53 -63 -25
-164 58 -203 72 -34 191 -18 246 34 27 25 32 36 28 65 -2 19 0 35 5 35 4 0 50
-18 102 -40 52 -22 101 -40 109 -40 21 0 20 -16 0 -24 -22 -9 0 -36 29 -36 21
0 21 0 -1 -16 -12 -8 -22 -21 -23 -27 0 -11 -190 -178 -211 -186 -5 -2 -28 11
-50 29 -24 20 -43 29 -49 23 -11 -11 37 -59 64 -65 13 -2 -26 -31 -115 -86
-189 -119 -191 -121 -191 -176 1 -36 8 -55 34 -87 18 -23 46 -50 62 -59 l29
-18 -31 -16 c-17 -9 -47 -30 -66 -48 l-36 -31 -167 2 c-92 1 -230 6 -307 13
-134 10 -141 12 -165 39 -27 30 -178 129 -196 129 -15 0 -61 61 -80 105 -7 19
-14 50 -14 70 l0 35 85 -1 84 -2 11 -33 c6 -18 25 -47 42 -63 29 -28 38 -31
92 -31 72 0 133 25 164 66 12 16 34 42 48 57 26 30 30 74 5 69 -11 -2 -12 6
-5 45 10 57 11 158 1 195 -4 15 -23 42 -43 60 l-35 34 25 14 c60 31 83 155 34
177 -18 8 -15 12 30 36 27 15 52 27 55 27 4 0 13 -37 19 -75 4 -27 -15 -305
-23 -342 -11 -53 -5 -70 31 -78 39 -9 179 12 207 30 29 19 38 60 53 221 8 90
9 137 2 150 -8 15 -6 25 9 43 21 25 25 56 9 66 -6 4 -17 -10 -26 -30 -14 -34
-18 -37 -46 -31 -17 3 -46 20 -65 36 -36 32 -53 31 -83 -4 -20 -25 -37 -19
-42 14 -3 20 2 37 15 51 l19 20 15 -20 c16 -24 45 -27 62 -8 13 16 -4 37 -31
37 -10 0 -18 3 -18 6 0 14 93 133 100 129 5 -3 7 -12 3 -20z m1144 -125 c91
-144 219 -412 262 -550 43 -140 78 -267 91 -336 11 -57 11 -246 0 -257 -8 -8
-447 -16 -551 -10 l-97 6 -6 86 c-15 186 28 569 67 593 6 4 26 8 43 8 39 0
123 25 149 44 19 14 17 16 -35 40 -30 14 -53 26 -50 26 3 1 29 7 59 13 30 7
56 17 58 23 2 7 -15 30 -39 54 -40 38 -42 42 -24 53 10 7 36 26 57 44 l39 31
-35 22 c-40 25 -41 28 -17 46 16 13 16 15 -2 29 -16 12 -37 67 -53 145 -8 34
-7 32 84 -110z m-2635 -44 c14 -10 16 -23 11 -64 -5 -49 -7 -52 -39 -58 -55
-10 -68 0 -60 47 12 73 49 105 88 75z m-123 -55 l1 -60 -32 11 c-41 13 -44 16
-52 50 -5 24 -2 28 37 41 23 9 43 16 43 16 1 1 2 -26 3 -58z m1539 -28 c-3
-39 -24 -56 -34 -28 -7 18 14 65 28 65 5 0 8 -17 6 -37z m40 5 c19 -19 15 -50
-5 -46 -12 2 -18 13 -19 31 -1 29 5 34 24 15z m-98 -28 c0 -5 -7 -10 -15 -10
-8 0 -15 5 -15 10 0 6 7 10 15 10 8 0 15 -4 15 -10z m162 2 c11 -5 14 -12 9
-20 -11 -19 -45 -11 -49 11 -4 18 10 21 40 9z m-472 -7 c0 -3 -20 -10 -44 -16
-48 -12 -86 -41 -86 -65 0 -8 7 -29 16 -45 17 -34 6 -59 -27 -59 -22 0 -64
-54 -83 -106 -14 -41 -16 -42 -83 -28 -41 8 -42 20 -3 29 47 10 39 34 -9 28
-35 -5 -41 -2 -56 23 -10 16 -26 41 -36 56 -26 38 -27 52 -4 53 47 4 55 5 55
14 0 5 -16 15 -35 21 -19 6 -33 15 -30 20 8 13 220 59 315 69 47 4 91 9 98 10
6 0 12 -1 12 -4z m470 -229 c0 -31 -5 -58 -12 -63 -7 -6 -40 -13 -73 -17 -33
-3 -72 -8 -87 -12 -26 -6 -26 -5 -21 37 3 24 11 50 17 58 19 24 89 51 134 51
l42 0 0 -54z m688 -123 c25 -54 27 -69 30 -213 l3 -155 -88 -17 c-147 -29
-258 -41 -304 -34 -40 6 -45 10 -61 49 -9 23 -18 61 -21 83 l-5 42 112 70 c61
39 150 107 199 151 48 45 92 81 98 81 5 0 22 -26 37 -57z m-704 7 c-5 -5 -21
-12 -36 -15 -24 -6 -28 -4 -28 13 0 16 7 21 33 24 32 3 46 -7 31 -22z m-144
-15 c0 -15 -27 -28 -41 -19 -5 3 -9 13 -9 23 0 14 6 17 25 13 14 -2 25 -10 25
-17z m67 10 c0 -15 -34 -31 -44 -21 -3 3 -3 12 0 21 8 19 44 20 44 0z m-607
-14 c0 -5 -7 -12 -16 -15 -14 -5 -15 -4 -4 9 14 17 20 19 20 6z m-125 -151
c-3 -5 -10 -10 -16 -10 -5 0 -9 5 -9 10 0 6 7 10 16 10 8 0 12 -4 9 -10z m395
-49 c0 -12 -20 -25 -27 -18 -7 7 6 27 18 27 5 0 9 -4 9 -9z m660 -67 c0 -22
-2 -25 -15 -14 -12 10 -13 16 -4 26 16 20 19 18 19 -12z m-20 -46 c35 -57 22
-95 -26 -78 -38 13 -59 70 -35 95 23 23 39 18 61 -17z m-1025 -67 c3 -5 1 -12
-5 -16 -5 -3 -10 1 -10 9 0 18 6 21 15 7z m43 -40 c3 -8 -1 -12 -9 -9 -7 2
-15 10 -17 17 -3 8 1 12 9 9 7 -2 15 -10 17 -17z m117 -106 c56 -35 77 -65 90
-123 6 -31 5 -33 -14 -27 -15 4 -21 2 -21 -9 0 -8 5 -18 10 -21 20 -12 9 -25
-20 -25 -16 0 -30 5 -30 10 0 14 -27 13 -32 -2 -4 -11 -58 24 -122 79 -98 87
-82 151 37 152 38 1 59 -6 102 -34z m1150 21 c21 -14 56 -91 44 -99 -39 -24
-189 -90 -237 -103 -52 -14 -65 -15 -72 -4 -4 7 -15 10 -24 7 -11 -4 -18 1
-22 18 -7 27 -23 32 -42 13 -9 -9 -12 -4 -12 24 0 39 21 65 90 113 44 31 77
38 182 43 51 3 76 -1 93 -12z"/>
<path d="M2601 1690 c-14 -3 -27 -12 -29 -19 -4 -11 4 -12 34 -7 22 4 43 11
47 15 12 11 -23 19 -52 11z"/>
<path d="M1996 1671 c-8 -12 3 -18 50 -24 33 -5 63 6 47 16 -22 13 -91 19 -97
8z"/>
<path d="M2820 1049 c0 -11 40 -48 53 -49 16 0 6 30 -15 44 -26 19 -38 20 -38
5z"/>
<path d="M2635 1000 c-16 -26 25 -90 57 -90 17 0 17 3 -6 33 -15 19 -26 39
-26 45 0 16 -17 24 -25 12z"/>
<path d="M2556 951 c-7 -10 50 -101 64 -101 16 0 12 18 -16 66 -25 43 -38 52
-48 35z"/>
<path d="M2407 923 c-15 -14 21 -123 40 -123 10 0 13 6 9 16 -4 9 -11 36 -17
60 -12 45 -21 59 -32 47z"/>
<path d="M2480 912 c0 -33 20 -77 40 -90 25 -15 25 -10 1 53 -19 51 -41 71
-41 37z"/>
<path d="M2133 833 c-6 -43 -8 -81 -6 -86 7 -13 23 3 23 24 0 10 4 19 10 19
11 0 27 27 31 55 3 12 -2 20 -11 20 -8 0 -16 10 -18 23 -7 45 -20 20 -29 -55z"/>
<path d="M2340 867 c0 -24 7 -52 16 -63 14 -18 15 -16 10 30 -3 27 -6 55 -6
62 0 8 -4 14 -10 14 -5 0 -10 -19 -10 -43z"/>
<path d="M2278 861 c-4 -49 4 -83 21 -89 10 -3 12 2 8 19 -4 13 -7 43 -7 67 0
53 -17 56 -22 3z"/>
<path d="M2230 831 c0 -42 17 -98 26 -88 9 9 -7 127 -17 127 -5 0 -9 -18 -9
-39z"/>
<path d="M2102 555 c3 -52 8 -68 28 -85 23 -20 25 -20 30 -4 6 16 7 15 12 -4
4 -12 11 -22 17 -22 15 0 13 48 -3 85 l-13 30 -10 -34 -9 -35 -17 36 c-9 20
-17 50 -17 67 0 17 -5 31 -11 31 -8 0 -10 -21 -7 -65z"/>
<path d="M3910 3906 c0 -15 58 -28 66 -14 10 15 -7 28 -37 28 -18 0 -29 -5
-29 -14z"/>
<path d="M4017 3753 c-12 -11 -8 -23 8 -23 8 0 15 7 15 15 0 16 -12 20 -23 8z"/>
<path d="M4050 3565 c0 -18 46 -42 58 -31 7 8 -33 46 -49 46 -5 0 -9 -7 -9
-15z"/>
<path d="M2572 3540 c0 -19 2 -27 5 -17 2 9 2 25 0 35 -3 9 -5 1 -5 -18z"/>
<path d="M2371 3463 c0 -77 10 -125 21 -107 9 14 -4 184 -13 184 -5 0 -9 -35
-8 -77z"/>
<path d="M2511 3520 c0 -14 4 -34 9 -45 7 -17 9 -16 9 10 0 17 -4 37 -9 45 -8
12 -10 10 -9 -10z"/>
<path d="M2436 3514 c-10 -25 -7 -82 4 -89 6 -4 10 15 10 49 0 58 -3 68 -14
40z"/>
<path d="M1451 3506 c-16 -20 -41 -102 -41 -135 1 -23 2 -24 11 -8 12 20 49
150 45 155 -2 1 -9 -4 -15 -12z"/>
<path d="M2236 3498 c-3 -13 -6 -34 -6 -48 0 -21 2 -22 14 -10 18 19 25 72 10
77 -6 2 -14 -6 -18 -19z"/>
<path d="M2177 3503 c-4 -3 -7 -11 -7 -17 0 -6 5 -5 12 2 6 6 9 14 7 17 -3 3
-9 2 -12 -2z"/>
<path d="M1497 3463 c-26 -52 -40 -104 -29 -115 6 -6 17 15 31 62 23 76 22
101 -2 53z"/>
<path d="M2296 3474 c-10 -25 -7 -84 4 -84 6 0 10 23 10 50 0 52 -4 61 -14 34z"/>
<path d="M2862 3432 c-1 -31 -6 -73 -11 -92 l-8 -35 -61 64 c-33 35 -64 61
-70 57 -5 -3 -13 -17 -16 -30 -3 -14 -11 -38 -17 -53 l-11 -28 -31 37 -32 38
-54 -115 c-30 -64 -59 -114 -65 -112 -5 2 -14 18 -18 35 -10 37 -24 41 -33 11
-4 -11 -21 -43 -38 -71 l-31 -50 -27 32 c-15 17 -32 52 -39 76 -16 56 -28 63
-51 33 l-18 -24 -14 35 c-8 19 -17 42 -20 50 -3 10 -6 6 -6 -8 -1 -26 26 -89
42 -99 5 -3 16 2 23 11 13 19 16 16 33 -34 16 -49 64 -105 84 -97 9 3 29 29
45 56 l28 51 22 -28 21 -27 24 26 c20 22 63 114 91 192 5 17 9 15 32 -12 38
-45 51 -40 71 29 l16 60 31 -37 c34 -42 87 -93 96 -93 3 0 12 34 20 77 l13 76
19 -24 c37 -47 122 -129 133 -129 12 0 25 51 25 98 0 32 -20 27 -21 -5 0 -16
-4 -36 -8 -47 -6 -16 -13 -13 -54 29 -26 26 -59 67 -73 91 -14 24 -29 44 -32
44 -4 0 -8 -26 -10 -58z"/>
<path d="M1561 3424 c-7 -35 -7 -62 -2 -73 8 -14 10 -14 15 -1 11 28 24 115
20 122 -12 19 -22 4 -33 -48z"/>
<path d="M3836 3384 c24 -89 34 -112 34 -78 0 28 -42 164 -51 164 -4 0 4 -39
17 -86z"/>
<path d="M1666 3448 c-11 -36 -13 -57 -5 -69 6 -10 11 -6 18 14 6 16 11 34 11
42 0 19 -19 29 -24 13z"/>
<path d="M3060 3438 c0 -21 78 -157 117 -204 19 -24 41 -44 49 -44 7 0 17 15
22 33 l9 32 25 -55 c13 -30 37 -88 53 -127 31 -80 49 -91 76 -47 15 25 16 23
22 -64 7 -99 13 -122 32 -122 9 0 11 -13 7 -45 -3 -27 -1 -45 6 -45 11 0 19
38 26 135 l5 70 -18 -55 -18 -55 -6 40 c-4 22 -9 79 -13 128 -3 48 -10 87 -15
87 -5 0 -19 -16 -31 -35 -13 -19 -26 -35 -30 -35 -3 0 -11 15 -17 33 -25 70
-106 257 -112 257 -4 0 -9 -19 -13 -42 -4 -22 -9 -45 -12 -50 -8 -12 -54 49
-109 143 -47 80 -55 89 -55 67z"/>
<path d="M3700 3425 c0 -23 32 -139 42 -149 13 -16 9 47 -7 102 -15 51 -35 78
-35 47z"/>
<path d="M3770 3435 c0 -4 6 -33 14 -64 8 -31 17 -68 20 -83 10 -44 29 -35 22
10 -10 53 -36 131 -47 137 -5 4 -9 3 -9 0z"/>
<path d="M3620 3397 c0 -2 7 -28 16 -58 16 -55 34 -86 34 -58 0 23 -31 108
-41 115 -5 3 -9 3 -9 1z"/>
<path d="M3565 3353 c8 -45 35 -81 35 -47 0 31 -20 84 -32 84 -6 0 -8 -14 -3
-37z"/>
<path d="M4110 3382 c0 -15 28 -47 35 -40 8 8 -13 48 -25 48 -6 0 -10 -4 -10
-8z"/>
<path d="M3500 3351 c0 -19 17 -38 25 -29 7 7 -7 48 -16 48 -5 0 -9 -9 -9 -19z"/>
<path d="M2007 3282 c-23 -52 -106 -162 -123 -162 -7 0 -19 19 -26 43 -11 38
-12 39 -16 15 -3 -27 22 -88 36 -88 19 0 53 35 98 101 l49 71 5 -37 c7 -52 24
-54 53 -8 32 51 42 74 20 44 -52 -71 -49 -70 -57 -3 -4 34 -10 62 -15 62 -4 0
-15 -17 -24 -38z"/>
<path d="M1805 3178 c-22 -45 -32 -47 -46 -11 -8 23 -12 24 -23 12 -20 -21
-98 -229 -103 -274 l-4 -40 24 28 24 29 7 -42 c7 -44 30 -96 75 -167 44 -73
54 -51 16 38 -19 44 -35 87 -35 95 0 8 -10 47 -21 87 l-22 74 24 61 c15 40 27
58 33 52 6 -6 16 -10 23 -10 15 0 56 76 50 93 -2 7 -12 -5 -22 -25z"/>
<path d="M4100 3166 c0 -15 18 -31 26 -23 7 7 -7 37 -17 37 -5 0 -9 -6 -9 -14z"/>
<path d="M2940 3060 c0 -5 10 -10 23 -10 18 0 19 2 7 10 -19 13 -30 13 -30 0z"/>
<path d="M4070 3001 c0 -5 9 -19 20 -32 19 -23 19 -23 20 -3 0 20 -17 44 -32
44 -4 0 -8 -4 -8 -9z"/>
<path d="M2783 2909 c-23 -7 -35 -17 -39 -35 -14 -55 36 -97 130 -110 126 -18
127 111 1 145 -46 12 -49 12 -92 0z"/>
<path d="M3531 2765 c-22 -70 -27 -116 -12 -99 11 12 45 153 38 160 -3 3 -15
-24 -26 -61z"/>
<path d="M2031 2785 c-53 -31 -70 -51 -71 -85 0 -34 17 -50 52 -50 81 0 170
104 126 148 -19 19 -59 14 -107 -13z"/>
<path d="M4040 2782 c0 -5 7 -17 15 -28 14 -18 14 -18 15 9 0 17 -5 27 -15 27
-8 0 -15 -4 -15 -8z"/>
<path d="M1630 2763 c0 -42 13 -64 34 -61 11 2 28 -6 37 -16 22 -27 30 -7 13
32 -11 26 -18 32 -33 27 -14 -4 -21 0 -26 15 -8 25 -25 27 -25 3z"/>
<path d="M2541 2744 c-37 -27 -51 -28 -99 -15 -24 7 -44 6 -75 -5 -25 -9 -55
-13 -76 -9 -31 6 -33 5 -22 -9 8 -9 22 -16 32 -16 10 0 20 -9 24 -20 10 -30
54 -60 89 -60 39 1 63 19 77 59 8 21 24 38 50 52 21 10 39 26 39 34 0 18 3 19
-39 -11z m-61 -51 c2 -2 -2 -16 -11 -31 -19 -35 -65 -41 -97 -12 -28 26 -28
34 1 48 20 10 95 7 107 -5z"/>
<path d="M3568 2705 c-7 -12 -38 -115 -38 -127 0 -25 21 9 35 58 15 52 17 91
3 69z"/>
<path d="M3955 2628 c-10 -26 2 -55 17 -40 8 8 8 18 1 34 -10 21 -12 21 -18 6z"/>
<path d="M3842 2504 c1 -9 9 -19 16 -22 9 -3 13 2 10 14 -1 9 -9 19 -16 22 -9
3 -13 -2 -10 -14z"/>
<path d="M3750 2411 c0 -12 6 -21 16 -21 9 0 14 7 12 17 -5 25 -28 28 -28 4z"/>
<path d="M3650 2331 c0 -12 5 -21 10 -21 6 0 10 6 10 14 0 8 -4 18 -10 21 -5
3 -10 -3 -10 -14z"/>
</g>
</svg>
